<?xml version="1.0" encoding="utf-8"?>
<!-- Generator: Adobe Illustrator 17.0.0, SVG Export Plug-In . SVG Version: 6.00 Build 0)  -->
<!DOCTYPE svg PUBLIC "-//W3C//DTD SVG 1.1//EN" "http://www.w3.org/Graphics/SVG/1.1/DTD/svg11.dtd">
<svg version="1.1" id="Layer_1" xmlns="http://www.w3.org/2000/svg" xmlns:xlink="http://www.w3.org/1999/xlink" x="0px" y="0px"
	 width="18.64px" height="18.64px" viewBox="0 0 18.64 18.64" enable-background="new 0 0 18.64 18.64" xml:space="preserve">
<g>
	<path fill="#949494" d="M4.25,8.14H0v2.36h4.25V8.14z M8.145,18.64h2.359v-4.245H8.145V18.64z M14.394,8.14v2.36h4.25V8.14H14.394z
		 M8.145,4.246h2.359V0H8.145V4.246z M1.898,15.078l1.668,1.668l3.004-3.004l-1.672-1.668L1.898,15.078z M1.898,3.562l3,3.004
		L6.57,4.898L3.566,1.894L1.898,3.562z M12.074,13.742l3.004,3.004l1.672-1.668l-3.008-3.004L12.074,13.742z M12.074,13.742"/>
</g>
</svg>
